# xmcd
#
# Track frame offsets: 
#        150
#        13074
#        26170
#        40033
#        53664
#        65056
#        78290
#        89694
#        101978
#        115271
#        126271
#        140759
#        153525
#        166789
#        180838
#        193288
#        205834
#        217196
#        231037
#        244109
#        255487
#        268057
#        280899
#        291138
#        301518
#        313531
#        327091
#        337493
#
# Disc length: 4612 seconds
#
# Revision: 0
# Processed by: cddbd v1.5.2PL0 Copyright (c) Steve Scherf et al.
# Submitted via: ExactAudioCopyFreeDBPlugin 1.0
#
DISCID=a312021c
DTITLE=Muddy Waters - Rollin' Stone CD2 (Compilation Blues Characters)
DYEAR=1900
DGENRE=Blues
TTITLE0=I'm your hoochie coochie man
TTITLE1=I just want to make love to you
TTITLE2=I'm ready
TTITLE3=Young fashioned ways
TTITLE4=I want to be loved
TTITLE5=Mannish boy
TTITLE6=Sugar sweet
TTITLE7=Trouble no more
TTITLE8=All aboard
TTITLE9=Diamonds at your feet
TTITLE10=Rock me
TTITLE11=Got my mojo working
TTITLE12=I won't go on
TTITLE13=Close to you
TTITLE14=Walking through the park
TTITLE15=Mean mistreater
TTITLE16=Crawlin' kingsnake
TTITLE17=Lonesome road blues
TTITLE18=Southbound train
TTITLE19=Just a dream
TTITLE20=Double trouble
TTITLE21=Woman wanted
TTITLE22=I'm your doctor
TTITLE23=Meanest woman
TTITLE24=Real love
TTITLE25=Lonesome bedroom blues
TTITLE26=Messin' with the man
TTITLE27=Muddy Waters twist
EXTD=
EXTT0=
EXTT1=
EXTT2=
EXTT3=
EXTT4=
EXTT5=
EXTT6=
EXTT7=
EXTT8=
EXTT9=
EXTT10=
EXTT11=
EXTT12=
EXTT13=
EXTT14=
EXTT15=
EXTT16=
EXTT17=
EXTT18=
EXTT19=
EXTT20=
EXTT21=
EXTT22=
EXTT23=
EXTT24=
EXTT25=
EXTT26=
EXTT27=
PLAYORDER=
